<?xml version="1.0" encoding="UTF-8" standalone="no"?>
<!-- Created with Inkscape (http://www.inkscape.org/) -->

<svg
   width="512"
   height="512"
   viewBox="0 0 512 512"
   version="1.1"
   id="svg1"
   xmlns:xlink="http://www.w3.org/1999/xlink"
   xmlns="http://www.w3.org/2000/svg"
   xmlns:svg="http://www.w3.org/2000/svg">
  <defs
     id="defs1">
    <linearGradient
       xlink:href="#linearGradient4"
       id="linearGradient10"
       gradientUnits="userSpaceOnUse"
       gradientTransform="matrix(1.0762941,0,0,1.0762941,4.1686768,-80.301722)"
       x1="136.38943"
       y1="246.15149"
       x2="442.83914"
       y2="177.53545"
       spreadMethod="pad" />
    <linearGradient
       id="linearGradient4">
      <stop
         style="stop-color:#030e2f;stop-opacity:1;"
         offset="0.21267498"
         id="stop4" />
      <stop
         style="stop-color:#142c6b;stop-opacity:1;"
         offset="0.58197087"
         id="stop5" />
    </linearGradient>
  </defs>
  <g
     id="layer1">
    <path
       style="fill:url(#linearGradient10);fill-opacity:1;fill-rule:nonzero;stroke-width:1.07629"
       d="m 45.894378,64.998 c 0,0 16.401336,-0.153481 24.188909,4.936419 7.787471,5.08953 7.728594,20.32334 7.728594,20.32334 L 77.742947,301.7224 c 0,0 -0.175135,14.32401 -5.376668,20.41022 C 67.164181,328.21881 45.894,328.642 45.894,328.642 l 1.98e-4,8.467 c 0,0 17.873765,-1.21307 36.567113,-1.17869 18.693349,0.0388 50.156159,1.19081 70.954979,1.17869 11.63172,-0.007 36.96546,2.3904 74.73956,-18.29564 37.77407,-20.68612 50.02427,-58.64927 50.02427,-58.64927 l -23.5133,-64.62754 c 0,0 7.60637,57.73214 -22.82938,98.43857 -23.85562,31.90581 -78.17307,34.51151 -78.17307,34.51151 0,0 -24.82258,1.79046 -31.53275,-4.32479 -6.71028,-6.11515 -7.14167,-21.75437 -7.14167,-21.75437 l -0.0346,-213.103738 c 0,0 -1.39286,-11.051287 7.92317,-18.86111 9.31603,-7.809823 50.90031,-8.335358 76.35029,3.59178 31.81567,14.910421 41.29591,39.358428 46.45479,53.453448 56.12431,153.34204 61.05354,166.89415 61.05354,166.89415 l 99.3756,-211.462878 -0.0694,217.052158 c 0,0 -0.21852,16.12694 -5.77301,22.07083 -5.55382,5.94392 -26.44534,6.44452 -26.44534,6.44452 v 8.46682 c 0,0 16.1521,-1.00907 51.52632,-1.05345 35.37424,-0.0486 49.61643,1.20902 49.61643,1.20902 l -0.0688,-8.62239 c 0,0 -22.12974,-0.46254 -27.24356,-7.99589 -5.11372,-7.53317 -4.62444,-21.35294 -4.62444,-21.35294 l 0.0688,-207.938151 c 0,0 -0.46136,-14.85014 6.65443,-20.51206 C 456.87011,65.025729 474.968,64.998 474.968,64.998 v -8.356 c 0,0 -25.56345,0.258 -38.0996,0.258 -12.53618,0 -37.1174,-0.258 -37.1174,-0.258 l -81.78756,173.78771 c 0,0 -2.70231,-7.42447 -38.78732,-106.56616 -12.59795,-34.612214 -29.55945,-42.624907 -42.5084,-50.558401 -25.22913,-15.457246 -58.92533,-17.417001 -88.50346,-16.66348 -34.02052,0.866694 -102.269882,4.9e-4 -102.269882,4.9e-4 z"
       id="path3-3-0" />
  </g>
</svg>
