<?xml version="1.0" encoding="UTF-8" standalone="no"?>
<!-- Created with Inkscape (http://www.inkscape.org/) -->

<svg
   width="512"
   height="512"
   viewBox="0 0 512 512"
   version="1.1"
   id="svg1"
   inkscape:version="1.4.2 (f4327f4, 2025-05-13)"
   sodipodi:docname="Inkscape Logo.svg"
   xmlns:inkscape="http://www.inkscape.org/namespaces/inkscape"
   xmlns:sodipodi="http://sodipodi.sourceforge.net/DTD/sodipodi-0.dtd"
   xmlns:xlink="http://www.w3.org/1999/xlink"
   xmlns="http://www.w3.org/2000/svg"
   xmlns:svg="http://www.w3.org/2000/svg">
  <sodipodi:namedview
     id="namedview1"
     pagecolor="#ffffff"
     bordercolor="#000000"
     borderopacity="0.25"
     inkscape:showpageshadow="2"
     inkscape:pageopacity="0.0"
     inkscape:pagecheckerboard="false"
     inkscape:deskcolor="#d1d1d1"
     inkscape:document-units="px"
     showguides="true"
     inkscape:zoom="1.1445312"
     inkscape:cx="323.71331"
     inkscape:cy="162.51195"
     inkscape:window-width="1440"
     inkscape:window-height="830"
     inkscape:window-x="-6"
     inkscape:window-y="-6"
     inkscape:window-maximized="1"
     inkscape:current-layer="layer1"
     guidecolor="#5f6d8d"
     guideopacity="0.58039216"
     inkscape:lockguides="false">
    <sodipodi:guide
       position="45.894,475.70346"
       orientation="-1,0"
       id="guide1"
       inkscape:locked="false"
       inkscape:label=""
       inkscape:color="rgb(0,134,229)" />
    <sodipodi:guide
       position="474.968,389.67918"
       orientation="-1,0"
       id="guide2"
       inkscape:locked="false"
       inkscape:label=""
       inkscape:color="rgb(0,134,229)" />
    <sodipodi:guide
       position="115.059,402.33812"
       orientation="-1,0"
       id="guide3"
       inkscape:locked="false"
       inkscape:label=""
       inkscape:color="rgb(0,134,229)" />
    <sodipodi:guide
       position="77.812,402.8787"
       orientation="-1,0"
       id="guide4"
       inkscape:locked="false"
       inkscape:label=""
       inkscape:color="rgb(0,134,229)" />
    <sodipodi:guide
       position="406.216,341.86963"
       orientation="-1,0"
       id="guide5"
       inkscape:locked="false"
       inkscape:label=""
       inkscape:color="rgb(0,134,229)" />
    <sodipodi:guide
       position="443.1,340.78845"
       orientation="-1,0"
       id="guide6"
       inkscape:locked="false"
       inkscape:label=""
       inkscape:color="rgb(0,134,229)" />
    <sodipodi:guide
       position="63.171424,455.358"
       orientation="0,1"
       id="guide7"
       inkscape:locked="false"
       inkscape:label=""
       inkscape:color="rgb(0,134,229)" />
    <sodipodi:guide
       position="73.392491,174.891"
       orientation="0,1"
       id="guide8"
       inkscape:locked="false"
       inkscape:label=""
       inkscape:color="rgb(0,134,229)" />
    <sodipodi:guide
       position="484.36573,447.002"
       orientation="0,1"
       id="guide9"
       inkscape:label=""
       inkscape:locked="false"
       inkscape:color="rgb(0,134,229)" />
    <sodipodi:guide
       position="42.703072,183.358"
       orientation="0,1"
       id="guide10"
       inkscape:label=""
       inkscape:locked="false"
       inkscape:color="rgb(0,134,229)" />
    <sodipodi:guide
       position="259.05802,348.61433"
       orientation="0.93969262,0.34202014"
       id="guide11"
       inkscape:locked="false"
       inkscape:label=""
       inkscape:color="rgb(0,134,229)" />
    <sodipodi:guide
       position="338.56655,224.98294"
       orientation="0.93969262,0.34202014"
       id="guide12"
       inkscape:label=""
       inkscape:locked="false"
       inkscape:color="rgb(0,134,229)" />
    <sodipodi:guide
       position="399.751,455.358"
       orientation="-0.90482705,0.42577929"
       id="guide13"
       inkscape:label=""
       inkscape:locked="false"
       inkscape:color="rgb(0,134,229)" />
    <sodipodi:guide
       position="429.43345,478.36177"
       orientation="-0.90482705,0.42577929"
       id="guide14"
       inkscape:label=""
       inkscape:locked="false"
       inkscape:color="rgb(0,134,229)" />
    <sodipodi:guide
       position="277.59466,253.46408"
       orientation="0.93969262,0.34202014"
       id="guide15"
       inkscape:label=""
       inkscape:locked="false"
       inkscape:color="rgb(0,134,229)" />
    <sodipodi:guide
       position="0,512"
       orientation="0,512"
       id="guide16"
       inkscape:locked="false" />
    <sodipodi:guide
       position="512,512"
       orientation="512,0"
       id="guide17"
       inkscape:locked="false" />
    <sodipodi:guide
       position="512,0"
       orientation="0,-512"
       id="guide18"
       inkscape:locked="false" />
    <sodipodi:guide
       position="0,0"
       orientation="-512,0"
       id="guide19"
       inkscape:locked="false" />
    <sodipodi:guide
       position="0,512"
       orientation="0,512"
       id="guide20"
       inkscape:locked="false" />
    <sodipodi:guide
       position="512,512"
       orientation="512,0"
       id="guide21"
       inkscape:locked="false" />
    <sodipodi:guide
       position="512,0"
       orientation="0,-512"
       id="guide22"
       inkscape:locked="false" />
    <sodipodi:guide
       position="0,0"
       orientation="-512,0"
       id="guide23"
       inkscape:locked="false" />
  </sodipodi:namedview>
  <defs
     id="defs1">
    <linearGradient
       inkscape:collect="always"
       xlink:href="#linearGradient4"
       id="linearGradient10"
       gradientUnits="userSpaceOnUse"
       gradientTransform="matrix(1.0762941,0,0,1.0762941,4.1686768,-80.301722)"
       x1="136.38943"
       y1="246.15149"
       x2="442.83914"
       y2="177.53545"
       spreadMethod="pad" />
    <linearGradient
       id="linearGradient4"
       inkscape:collect="always">
      <stop
         style="stop-color:#030e2f;stop-opacity:1;"
         offset="0.21267498"
         id="stop4" />
      <stop
         style="stop-color:#142c6b;stop-opacity:1;"
         offset="0.58197087"
         id="stop5" />
    </linearGradient>
  </defs>
  <g
     inkscape:groupmode="layer"
     id="layer3"
     inkscape:label="Guides diag" />
  <g
     inkscape:groupmode="layer"
     id="layer2"
     inkscape:label="Guides" />
  <g
     inkscape:label="Dessin Logo"
     inkscape:groupmode="layer"
     id="layer1">
    <path
       style="fill:url(#linearGradient10);fill-opacity:1;fill-rule:nonzero;stroke-width:1.07629"
       d="m 45.894378,64.998 c 0,0 16.401336,-0.153481 24.188909,4.936419 7.787471,5.08953 7.728594,20.32334 7.728594,20.32334 L 77.742947,301.7224 c 0,0 -0.175135,14.32401 -5.376668,20.41022 C 67.164181,328.21881 45.894,328.642 45.894,328.642 l 1.98e-4,8.467 c 0,0 17.873765,-1.21307 36.567113,-1.17869 18.693349,0.0388 70.939359,1.02332 70.939359,1.02332 0,0 36.98108,2.54577 74.75518,-18.14027 37.77407,-20.68612 50.02427,-58.64927 50.02427,-58.64927 l -23.5133,-64.62754 c 0,0 7.60637,57.73214 -22.82938,98.43857 -23.85562,31.90581 -78.17307,34.51151 -78.17307,34.51151 0,0 -24.82258,1.79046 -31.53275,-4.32479 -6.71028,-6.11515 -7.14167,-21.75437 -7.14167,-21.75437 l -0.0346,-213.103738 c 0,0 -1.39286,-11.051287 7.92317,-18.86111 9.31603,-7.809823 50.90031,-8.335358 76.35029,3.59178 31.81567,14.910421 41.29591,39.358428 46.45479,53.453448 56.12431,153.34204 61.05354,166.89415 61.05354,166.89415 l 99.3756,-211.462878 -0.0694,217.052158 c 0,0 -0.21852,16.12694 -5.77301,22.07083 -5.55382,5.94392 -26.44534,6.44452 -26.44534,6.44452 v 8.46682 c 0,0 16.1521,-1.00907 51.52632,-1.05345 35.37424,-0.0486 49.61643,1.20902 49.61643,1.20902 l -0.0688,-8.62239 c 0,0 -22.12974,-0.46254 -27.24356,-7.99589 -5.11372,-7.53317 -4.62444,-21.35294 -4.62444,-21.35294 l 0.0688,-207.938151 c 0,0 -0.46136,-14.85014 6.65443,-20.51206 C 456.87011,65.025729 474.968,64.998 474.968,64.998 v -8.356 c 0,0 -25.56345,0.258 -38.0996,0.258 -12.53618,0 -37.1174,-0.258 -37.1174,-0.258 l -81.78756,173.78771 c 0,0 -2.70231,-7.42447 -38.78732,-106.56616 -12.59795,-34.612214 -29.55945,-42.624907 -42.5084,-50.558401 -25.22913,-15.457246 -58.92533,-17.417001 -88.50346,-16.66348 -34.02052,0.866694 -102.269882,4.9e-4 -102.269882,4.9e-4 z"
       id="path3-3-0"
       sodipodi:nodetypes="czcczcczczccsczcczssccczcczcczcczcczccssscc" />
  </g>
</svg>
